<svg version="1.1" xmlns="http://www.w3.org/2000/svg" xmlns:xlink="http://www.w3.org/1999/xlink" width="460" height="320" viewBox="0, 0, 460, 320">
  <g id="gears">
    <g id="development">
      <path d="M188.849,234.613 L183.861,234.613 C179.59,234.613 176.109,231.114 176.109,226.861 L176.109,226.502 C176.109,222.231 169.721,216.704 167.46,215.574 C166.939,215.305 166.329,215.179 165.647,215.179 C163.315,215.179 160.21,216.633 157.895,218.965 L157.644,219.217 C156.137,220.724 154.145,221.478 152.153,221.478 C150.161,221.478 148.17,220.724 146.662,219.217 L143.127,215.682 C140.113,212.667 140.113,207.714 143.127,204.7 L143.378,204.466 C146.393,201.434 145.837,193.107 145.065,190.667 C144.258,188.227 140.113,186.235 135.842,186.235 L135.501,186.235 C131.212,186.235 127.749,182.754 127.749,178.483 L127.749,173.494 C127.749,169.224 131.212,165.742 135.501,165.742 L135.842,165.742 C140.113,165.742 145.639,159.336 146.77,157.093 C147.936,154.85 146.393,150.543 143.378,147.511 L143.127,147.26 C140.113,144.263 140.113,139.328 143.127,136.296 L146.662,132.779 C148.17,131.253 150.161,130.5 152.153,130.5 C154.145,130.5 156.137,131.253 157.644,132.779 L157.895,132.994 C159.636,134.752 163.153,135.309 166.293,135.309 C168.59,135.309 170.654,135.022 171.695,134.681 C174.117,133.891 176.109,129.746 176.109,125.475 L176.109,125.116 C176.109,120.864 179.59,117.364 183.861,117.364 L188.849,117.364 C193.12,117.364 196.619,120.864 196.619,125.116 L196.619,125.475 C196.619,129.746 203.008,135.255 205.251,136.403 C205.771,136.655 206.381,136.78 207.063,136.78 C209.378,136.78 212.5,135.345 214.815,132.994 L215.048,132.779 C216.573,131.253 218.565,130.5 220.557,130.5 C222.549,130.5 224.541,131.253 226.048,132.779 L229.565,136.296 C232.616,139.328 232.616,144.263 229.565,147.26 L229.35,147.511 C226.317,150.543 226.856,158.888 227.663,161.31 C228.471,163.733 232.616,165.742 236.886,165.742 L237.209,165.742 C241.48,165.742 244.979,169.224 244.979,173.494 L244.979,178.483 C244.979,182.754 241.48,186.235 237.209,186.235 L236.886,186.235 C232.616,186.235 227.071,192.641 225.958,194.902 C224.792,197.127 226.317,201.434 229.35,204.466 L229.565,204.7 C232.616,207.714 232.616,212.667 229.565,215.682 L226.048,219.217 C224.541,220.724 222.549,221.478 220.557,221.478 C218.565,221.478 216.573,220.724 215.066,219.217 L214.815,218.965 C213.074,217.207 209.539,216.668 206.417,216.668 C204.12,216.668 202.056,216.956 201.034,217.296 C198.611,218.068 196.619,222.231 196.619,226.502 L196.619,226.861 C196.619,231.114 193.12,234.613 188.849,234.613 M186.355,146.668 C170.169,146.668 157.052,159.785 157.052,175.989 C157.052,192.156 170.169,205.292 186.355,205.292 C202.541,205.292 215.676,192.156 215.676,175.989 C215.676,159.785 202.541,146.668 186.355,146.668" fill="#E4695D"/>
      <path d="M282.914,165.33 L281.658,165.33 C277.405,165.33 273.888,162.423 273.888,158.852 C273.888,155.263 268.666,150.687 266.818,149.754 C266.405,149.539 265.921,149.449 265.364,149.449 C263.462,149.449 260.86,150.669 258.886,152.625 C257.774,153.738 256.267,154.276 254.669,154.276 C252.66,154.276 250.506,153.415 248.82,151.728 L247.922,150.813 C244.908,147.816 244.495,143.258 247.025,140.746 C249.555,138.234 249.125,131.361 248.479,129.369 C247.833,127.377 244.387,125.744 240.816,125.744 C237.246,125.744 234.321,122.281 234.321,117.992 L234.321,116.736 C234.321,112.466 237.246,108.966 240.816,108.966 C244.387,108.966 248.981,103.727 249.896,101.896 C250.847,100.066 249.555,96.495 247.025,93.965 C244.495,91.453 244.908,86.913 247.922,83.898 L248.82,82.983 C250.506,81.314 252.66,80.453 254.669,80.453 C256.267,80.453 257.774,80.991 258.886,82.104 C260.376,83.575 263.372,84.06 265.974,84.06 C267.805,84.06 269.456,83.826 270.281,83.539 C272.273,82.911 273.888,79.466 273.888,75.895 C273.888,72.306 277.405,69.399 281.658,69.399 L282.914,69.399 C287.185,69.399 290.684,72.306 290.684,75.895 C290.684,79.466 295.906,84.06 297.754,84.975 C298.167,85.19 298.651,85.28 299.189,85.28 C301.109,85.28 303.711,84.06 305.685,82.104 C306.798,80.991 308.305,80.453 309.902,80.453 C311.912,80.453 314.083,81.314 315.77,82.983 L316.649,83.898 C319.664,86.913 320.095,91.453 317.547,93.965 C315.016,96.495 315.447,103.368 316.093,105.342 C316.721,107.351 320.184,108.966 323.773,108.966 C327.344,108.966 330.251,112.466 330.251,116.736 L330.251,117.992 C330.251,122.281 327.344,125.744 323.773,125.744 C320.184,125.744 315.609,130.984 314.657,132.832 C313.724,134.645 315.016,138.234 317.547,140.746 C320.095,143.258 319.664,147.816 316.649,150.813 L315.77,151.728 C314.083,153.415 311.912,154.276 309.902,154.276 C308.305,154.276 306.798,153.738 305.685,152.625 C304.196,151.136 301.199,150.669 298.579,150.669 C296.767,150.669 295.116,150.902 294.291,151.171 C292.317,151.817 290.684,155.263 290.684,158.852 C290.684,162.423 287.185,165.33 282.914,165.33 M282.268,93.391 C269.043,93.391 258.312,104.121 258.312,117.364 C258.312,130.625 269.043,141.338 282.268,141.338 C295.529,141.338 306.277,130.625 306.277,117.364 C306.277,104.121 295.529,93.391 282.268,93.391" fill="#E4695D"/>
      <path d="M282.268,250.601 C278.697,250.601 275.754,248.322 275.754,245.559 C275.754,242.759 271.681,239.188 270.245,238.471 C269.94,238.309 269.545,238.237 269.133,238.237 C267.643,238.237 265.616,239.188 264.09,240.714 C263.265,241.539 262.152,241.934 260.95,241.934 C259.263,241.934 257.397,241.144 255.908,239.673 C253.378,237.125 252.893,233.446 254.867,231.49 C256.823,229.516 256.518,224.169 255.997,222.626 C255.495,221.082 252.821,219.808 250.022,219.808 C247.258,219.808 244.98,216.883 244.98,213.277 C244.98,209.706 247.258,206.763 250.022,206.763 C252.821,206.763 256.374,202.69 257.11,201.254 C257.846,199.836 256.823,197.073 254.867,195.081 C252.893,193.125 253.378,189.447 255.908,186.916 C257.397,185.445 259.263,184.655 260.95,184.655 C262.152,184.655 263.265,185.05 264.09,185.876 C265.257,187.024 267.589,187.383 269.635,187.383 C271.053,187.383 272.309,187.221 272.955,187.006 C274.498,186.504 275.754,183.812 275.754,181.049 C275.754,178.267 278.697,175.988 282.268,175.988 C285.875,175.988 288.818,178.267 288.818,181.049 C288.818,183.812 292.891,187.383 294.309,188.119 C294.614,188.262 294.99,188.352 295.421,188.352 C296.91,188.352 298.938,187.401 300.481,185.876 C301.289,185.05 302.419,184.655 303.622,184.655 C305.308,184.655 307.193,185.445 308.664,186.916 C311.23,189.447 311.679,193.125 309.705,195.081 C307.749,197.073 308.072,202.402 308.574,203.946 C309.077,205.489 311.786,206.763 314.55,206.763 C317.313,206.763 319.592,209.706 319.592,213.277 C319.592,216.883 317.313,219.808 314.55,219.808 C311.786,219.808 308.215,223.9 307.462,225.317 C306.726,226.735 307.749,229.516 309.705,231.49 C311.679,233.446 311.23,237.125 308.664,239.673 C307.193,241.144 305.308,241.934 303.622,241.934 C302.419,241.934 301.289,241.539 300.481,240.714 C299.315,239.565 296.982,239.188 294.955,239.188 C293.537,239.188 292.263,239.368 291.635,239.583 C290.092,240.086 288.818,242.759 288.818,245.559 C288.818,248.322 285.875,250.601 282.268,250.601 M282.268,194.65 C271.986,194.65 263.624,203.013 263.624,213.277 C263.624,223.595 271.986,231.957 282.268,231.957 C292.586,231.957 300.93,223.595 300.93,213.277 C300.93,203.013 292.586,194.65 282.268,194.65" fill="#E4695D"/>
    </g>
  </g>
  <g id="tags">
    <path d="M127.626,246.757 L-0.206,170.023 L-0.206,149.516 L127.626,73.466 L127.626,98.075 L25.087,160.624 L127.626,221.635 z" fill="#393939" id="&lt;"/>
    <path d="M460.291,169.523 L332.459,246.257 L332.459,221.135 L434.998,160.124 L332.459,97.575 L332.459,72.966 L460.291,149.016 z" fill="#393939" id="&gt;"/>
  </g>
</svg>
